<svg version="1.1" id="Layer_1" xmlns="http://www.w3.org/2000/svg" xmlns:xlink="http://www.w3.org/1999/xlink" x="0px" y="0px"
	 width="100%" viewBox="0 0 312 281" enable-background="new 0 0 312 281" xml:space="preserve">
<path fill="#FFFFFF" opacity="1.000000" stroke="none" 
	d="
M179.000000,282.000000 
	C119.333344,282.000000 60.166687,282.000000 1.000024,282.000000 
	C1.000016,188.333359 1.000016,94.666725 1.000008,1.000062 
	C104.999947,1.000041 208.999893,1.000041 312.999878,1.000021 
	C312.999939,94.666603 312.999939,188.333206 312.999969,281.999908 
	C268.500000,282.000000 224.000000,282.000000 179.000000,282.000000 
M265.349365,132.453995 
	C266.088440,130.683212 266.827484,128.912430 267.931213,126.569954 
	C269.300140,122.723541 270.669037,118.877129 272.525513,114.556778 
	C272.977844,113.035004 273.430176,111.513229 274.243317,109.383476 
	C274.763123,107.592201 275.282928,105.800934 276.112000,103.332893 
	C276.429932,101.893196 276.747864,100.453499 277.524506,98.486382 
	C277.948792,96.652191 278.373047,94.818001 279.063049,92.229042 
	C279.750397,87.499641 280.437744,82.770248 281.407043,77.399849 
	C281.473999,76.259598 281.540924,75.119339 281.817627,73.125984 
	C281.794037,71.079758 281.770447,69.033531 281.834320,66.216782 
	C281.586578,64.473061 281.338806,62.729343 281.162628,60.169189 
	C280.624023,57.400108 280.085419,54.631031 279.368958,51.106236 
	C278.275452,48.358261 277.181946,45.610283 276.000793,42.198715 
	C274.664307,40.548439 273.327850,38.898159 271.462280,36.917778 
	C270.622620,36.129543 269.782928,35.341312 268.289703,34.113354 
	C263.419159,33.146450 258.451904,31.059931 253.700317,31.470346 
	C246.238480,32.114853 239.540497,35.688541 233.438568,41.138290 
	C232.919510,41.679344 232.400467,42.220394 231.281769,43.034954 
	C230.076309,44.306019 228.870850,45.577087 227.138641,47.104687 
	C226.380402,47.976593 225.622147,48.848499 224.294022,50.070423 
	C222.819717,51.970112 221.345413,53.869801 219.322678,56.102142 
	C218.504745,57.328121 217.686813,58.554104 216.329803,60.143497 
	C215.500366,61.408207 214.670929,62.672916 213.302094,64.239334 
	C212.634888,65.498787 211.967682,66.758240 210.879700,68.531685 
	C210.257477,69.688988 209.635254,70.846283 208.572205,72.341049 
	C208.257568,72.999710 207.942932,73.658371 207.152023,74.845802 
	C205.510254,77.901695 203.868469,80.957596 201.807175,84.567711 
	C200.817642,86.616966 199.828110,88.666214 198.297150,91.153435 
	C193.415573,99.732925 188.534012,108.312416 183.124435,117.247696 
	C181.414429,119.485611 179.704407,121.723534 177.395157,124.221199 
	C175.913757,125.794113 174.432343,127.367020 172.314987,129.173859 
	C169.513580,131.104141 166.712173,133.034439 163.185272,135.054993 
	C161.101776,135.787918 159.018295,136.520844 156.164612,137.228180 
	C152.749817,137.270432 149.335022,137.312668 145.200455,137.098282 
	C141.139435,135.372437 137.078430,133.646576 132.660568,131.414017 
	C131.443863,130.693451 130.227158,129.972900 128.396530,128.930725 
	C123.300842,123.606262 118.205147,118.281807 112.939590,112.331718 
	C111.968712,111.198799 110.997841,110.065872 109.856071,108.269241 
	C108.018242,105.870949 106.180412,103.472656 104.159729,100.502777 
	C103.158600,99.213371 102.157471,97.923965 101.116966,96.237877 
	C101.116966,96.237877 100.792305,96.006577 100.654091,95.400894 
	C99.993263,94.597992 99.332436,93.795090 98.506042,92.441925 
	C97.747215,91.590004 96.988380,90.738075 96.049042,89.259087 
	C95.059227,88.447945 94.069405,87.636795 93.083359,86.189552 
	C92.770470,85.692535 92.457581,85.195526 92.002625,84.091240 
	C91.005768,83.053505 90.008904,82.015762 88.841820,80.386848 
	C87.951057,79.561836 87.060287,78.736816 85.949997,77.271683 
	C83.665230,75.111694 81.380470,72.951714 78.800186,70.193550 
	C75.864975,68.470940 72.929771,66.748322 69.401123,64.555252 
	C60.378246,60.715397 48.938511,65.146118 45.029873,76.456001 
	C43.641983,80.471939 43.212551,84.819130 42.099674,89.902473 
	C42.356068,93.949928 42.612457,97.997391 42.776455,102.885567 
	C43.521137,106.256172 44.265820,109.626778 44.973618,113.757523 
	C45.720642,116.172737 46.467667,118.587952 47.249023,121.718819 
	C48.316044,124.524178 49.383068,127.329544 50.652382,130.813522 
	C51.133415,131.875839 51.614452,132.938171 52.100540,134.740738 
	C55.831169,143.159088 59.561798,151.577438 63.451614,160.655655 
	C65.177711,163.813126 66.903809,166.970612 68.841408,170.812485 
	C70.269554,173.195602 71.697701,175.578705 73.234978,178.631653 
	C74.768379,180.885773 76.301781,183.139908 77.966583,186.018021 
	C79.169174,187.731506 80.371773,189.445007 81.841011,191.802567 
	C83.765015,194.263290 85.689018,196.724014 87.860344,199.831161 
	C90.237793,202.557648 92.615242,205.284134 95.243675,208.624542 
	C97.435059,210.778549 99.626434,212.932556 102.125893,215.688965 
	C104.731094,217.834412 107.336296,219.979858 110.277893,222.700317 
	C114.827179,225.529770 119.376457,228.359207 124.328331,231.753220 
	C129.878860,233.692581 135.429398,235.631958 141.785629,237.881332 
	C146.522018,238.201157 151.258392,238.520966 156.796051,238.925766 
	C158.865677,238.587891 160.935303,238.250000 163.804840,238.013000 
	C167.540298,236.965683 171.275757,235.918365 175.740768,234.870102 
	C180.211960,232.704788 184.683136,230.539474 189.830627,228.156082 
	C193.237823,225.815689 196.645020,223.475311 200.712341,220.944046 
	C209.223404,212.653000 217.734451,204.361938 226.832031,195.784790 
	C233.546997,186.191101 240.261963,176.597427 247.519867,166.596664 
	C251.273773,159.727921 255.027679,152.859177 259.197113,145.418243 
	C260.138855,143.292068 261.080597,141.165894 262.548065,138.617859 
	C263.332611,136.748627 264.117157,134.879395 265.349365,132.453995 
z"/>
<path fill="#BBFE03" opacity="1.000000" stroke="none" 
	d="
M183.652435,116.891907 
	C188.534012,108.312416 193.415573,99.732925 198.838531,91.272705 
	C206.931885,90.590439 214.537231,90.116325 222.021072,88.896690 
	C229.742065,87.638412 237.344818,85.654739 245.297119,84.012375 
	C246.060059,84.359955 246.525223,84.683601 246.852142,85.295822 
	C245.810699,86.052612 244.907471,86.520813 243.775696,86.720947 
	C237.165421,88.395401 230.710541,90.132240 224.432556,92.366234 
	C221.237442,93.503212 218.132294,95.220184 215.381439,97.218636 
	C206.236908,103.861977 204.289337,113.453575 204.743073,124.206429 
	C204.319916,125.269493 204.159683,126.128922 203.682495,127.124809 
	C199.954041,126.048103 196.347839,125.201721 193.183945,123.522133 
	C189.790009,121.720413 186.811966,119.135201 183.652435,116.891907 
z"/>
<path fill="#B903C8" opacity="1.000000" stroke="none" 
	d="
M140.979935,237.571320 
	C135.429398,235.631958 129.878860,233.692581 124.178711,231.091843 
	C125.932854,224.514511 129.818176,219.257538 129.112930,212.462372 
	C128.758255,209.045029 129.694092,205.493759 130.456161,201.998596 
	C132.435547,201.642899 133.989090,201.126602 135.577759,200.972473 
	C139.701324,200.572479 143.840332,200.331772 148.110474,200.318649 
	C148.505981,201.414764 148.764191,202.219727 149.002380,203.433456 
	C147.843994,208.107239 146.547363,212.168823 144.636108,216.302231 
	C141.720657,222.607376 142.036255,230.406525 140.979935,237.571320 
z"/>
<path fill="#EE116C" opacity="1.000000" stroke="none" 
	d="
M226.245499,196.070877 
	C217.734451,204.361938 209.223404,212.653000 200.340164,220.685760 
	C195.921051,215.603012 193.024216,209.129181 184.862335,209.663895 
	C184.144287,207.220764 183.572449,205.110077 183.001236,202.746460 
	C183.006119,202.324951 183.010391,202.156372 183.431519,201.982300 
	C185.621216,201.652023 187.397186,201.343475 189.166336,200.999786 
	C199.446945,199.002701 209.725952,196.997299 220.405945,194.995880 
	C222.619431,195.354965 224.432465,195.712921 226.245499,196.070877 
z"/>
<path fill="#EB1C77" opacity="1.000000" stroke="none" 
	d="
M226.538757,195.927826 
	C224.432465,195.712921 222.619431,195.354965 220.443207,194.631195 
	C221.054276,191.176300 222.028534,188.087204 223.148163,184.697586 
	C226.515793,179.488297 230.569519,174.923401 232.773727,169.593597 
	C236.471130,160.653198 238.990585,151.225632 242.379944,142.002243 
	C243.502640,142.001572 244.251099,142.001694 244.998932,142.431396 
	C245.328644,145.240540 245.658981,147.620117 245.942352,150.393707 
	C244.458557,156.312927 242.429321,161.877655 246.976929,167.003738 
	C240.261963,176.597427 233.546997,186.191101 226.538757,195.927826 
z"/>
<path fill="#3D01AE" opacity="1.000000" stroke="none" 
	d="
M98.671600,92.992188 
	C99.332436,93.795090 99.993263,94.597992 100.392326,95.749985 
	C90.310280,103.748856 87.118057,114.381378 87.059486,126.177902 
	C87.008858,136.374542 95.714119,147.106796 105.351212,149.032532 
	C107.801147,150.051163 109.900726,151.031143 112.040512,152.358673 
	C113.373093,155.135178 114.665459,157.564117 115.563431,159.997131 
	C112.617149,159.016129 110.047073,158.075211 107.518646,157.033218 
	C105.136238,156.051422 102.826393,154.891495 100.434746,153.934570 
	C91.782539,150.472687 79.484856,142.135284 79.802208,128.272430 
	C80.030647,118.293999 84.623817,110.538719 89.668007,102.829147 
	C92.069916,99.158058 95.633980,96.247337 98.671600,92.992188 
z"/>
<path fill="#7401FD" opacity="1.000000" stroke="none" 
	d="
M69.994560,65.025711 
	C72.929771,66.748322 75.864975,68.470940 78.801567,70.813751 
	C74.773170,76.909111 70.273216,82.105301 66.821190,87.923271 
	C61.317623,97.198853 52.377491,99.939285 42.868851,102.044846 
	C42.612457,97.997391 42.356068,93.949928 42.623451,89.456116 
	C45.865318,88.446632 48.893238,88.466980 51.246700,87.217224 
	C60.385479,82.364273 65.907036,74.254494 69.994560,65.025711 
z"/>
<path fill="#6A01FA" opacity="1.000000" stroke="none" 
	d="
M42.822655,102.465210 
	C52.377491,99.939285 61.317623,97.198853 66.821190,87.923271 
	C70.273216,82.105301 74.773170,76.909111 78.949326,71.112839 
	C81.380470,72.951714 83.665230,75.111694 85.743881,77.743202 
	C82.356598,82.807884 79.175438,87.401047 75.648972,92.029053 
	C73.354065,93.775803 71.386223,95.467422 69.458130,97.203186 
	C62.154037,103.778641 54.516014,109.831772 45.010502,112.997383 
	C44.265820,109.626778 43.521137,106.256172 42.822655,102.465210 
z"/>
<path fill="#4400DA" opacity="1.000000" stroke="none" 
	d="
M92.144691,84.698509 
	C92.457581,85.195526 92.770470,85.692535 92.936096,86.824028 
	C86.035408,98.620911 78.913612,109.580681 72.630928,121.002037 
	C66.195198,132.701614 70.845818,146.874710 82.552086,153.218506 
	C85.455170,154.791718 88.631790,155.855209 91.565475,157.378693 
	C93.484802,158.375427 95.193176,159.778381 96.559013,161.001007 
	C94.081535,161.003174 92.041069,161.003723 89.621948,160.960297 
	C84.072891,158.729446 78.757195,156.828094 73.766418,154.288269 
	C66.424011,150.551727 61.946911,139.869766 63.859501,131.826355 
	C64.316811,129.903152 64.622261,127.943832 65.272820,125.803810 
	C68.925102,119.377480 71.891792,112.877556 75.781090,106.986763 
	C80.853004,99.304726 86.656174,92.105492 92.144691,84.698509 
z"/>
<path fill="#4100CF" opacity="1.000000" stroke="none" 
	d="
M96.996033,160.999390 
	C95.193176,159.778381 93.484802,158.375427 91.565475,157.378693 
	C88.631790,155.855209 85.455170,154.791718 82.552086,153.218506 
	C70.845818,146.874710 66.195198,132.701614 72.630928,121.002037 
	C78.913612,109.580681 86.035408,98.620911 92.934212,87.142075 
	C94.069405,87.636795 95.059227,88.447945 95.819328,89.719162 
	C87.030952,97.795135 82.863823,108.223907 77.937279,118.117500 
	C76.425453,121.153580 75.258629,124.678162 75.124527,128.026733 
	C74.639793,140.130981 82.174080,150.063919 94.091202,155.004303 
	C100.917885,157.834396 107.343872,161.631027 113.973999,165.335892 
	C113.995148,166.137878 113.992546,166.596497 113.583542,167.025391 
	C110.452271,166.658554 107.727402,166.321396 104.965210,165.630447 
	C102.283943,163.850906 99.639992,162.425140 96.996033,160.999390 
z"/>
<path fill="#CF06A1" opacity="1.000000" stroke="none" 
	d="
M149.022385,203.024689 
	C148.764191,202.219727 148.505981,201.414764 148.157928,199.951736 
	C148.719559,197.197815 149.371033,195.101959 150.410645,193.008484 
	C152.004562,193.381424 153.897675,193.400482 154.297882,194.183029 
	C156.091034,197.689209 159.131042,196.952682 162.042175,197.319397 
	C163.055466,199.452499 164.039032,201.236313 165.022873,203.396454 
	C165.628876,205.283936 166.076889,206.883774 166.867889,208.290802 
	C170.149597,214.128281 168.780548,217.823410 161.655945,220.023071 
	C162.095093,225.846649 162.550018,231.879379 163.004929,237.912109 
	C160.935303,238.250000 158.865677,238.587891 156.395554,238.426147 
	C155.994675,236.106247 155.983734,234.285889 155.995987,232.465714 
	C156.025620,228.066116 156.194824,223.662613 156.058304,219.268417 
	C155.962585,216.188141 154.914230,213.061020 155.244598,210.059753 
	C155.947052,203.678040 155.608917,203.024719 149.022385,203.024689 
z"/>
<path fill="#7D05FE" opacity="1.000000" stroke="none" 
	d="
M69.697845,64.790482 
	C65.907036,74.254494 60.385479,82.364273 51.246700,87.217224 
	C48.893238,88.466980 45.865318,88.446632 42.746407,89.012421 
	C43.212551,84.819130 43.641983,80.471939 45.029873,76.456001 
	C48.938511,65.146118 60.378246,60.715397 69.697845,64.790482 
z"/>
<path fill="#CA03BB" opacity="1.000000" stroke="none" 
	d="
M149.002380,203.433456 
	C155.608917,203.024719 155.947052,203.678040 155.244598,210.059753 
	C154.914230,213.061020 155.962585,216.188141 156.058304,219.268417 
	C156.194824,223.662613 156.025620,228.066116 155.995987,232.465714 
	C155.983734,234.285889 155.994675,236.106247 155.994919,238.383652 
	C151.258392,238.520966 146.522018,238.201157 141.382782,237.726318 
	C142.036255,230.406525 141.720657,222.607376 144.636108,216.302231 
	C146.547363,212.168823 147.843994,208.107239 149.002380,203.433456 
z"/>
<path fill="#A402E6" opacity="1.000000" stroke="none" 
	d="
M130.046326,202.003052 
	C129.694092,205.493759 128.758255,209.045029 129.112930,212.462372 
	C129.818176,219.257538 125.932854,224.514511 123.977409,230.809555 
	C119.376457,228.359207 114.827179,225.529770 110.257675,222.097504 
	C116.606987,213.319809 121.598610,204.504532 123.370193,194.052429 
	C125.825760,194.703873 127.916878,195.326141 130.009445,196.380829 
	C130.022705,198.543167 130.034515,200.273117 130.046326,202.003052 
z"/>
<path fill="#4803E3" opacity="1.000000" stroke="none" 
	d="
M64.997559,126.001114 
	C64.622261,127.943832 64.316811,129.903152 63.859501,131.826355 
	C61.946911,139.869766 66.424011,150.551727 73.766418,154.288269 
	C78.757195,156.828094 84.072891,158.729446 89.609604,161.355316 
	C89.311417,165.276489 86.964386,163.819183 84.993263,163.499619 
	C77.760406,162.327042 70.526154,161.163025 63.292427,159.995789 
	C59.561798,151.577438 55.831169,143.159088 52.476715,134.370239 
	C54.305286,133.433105 55.940273,133.123383 57.172749,132.247360 
	C59.888760,130.316864 62.401726,128.100693 64.997559,126.001114 
z"/>
<path fill="#BAE111" opacity="1.000000" stroke="none" 
	d="
M183.388428,117.069801 
	C186.811966,119.135201 189.790009,121.720413 193.183945,123.522133 
	C196.347839,125.201721 199.954041,126.048103 204.053864,127.290909 
	C209.949493,129.365372 214.504578,127.409790 219.006866,125.296051 
	C219.340775,126.068451 219.653152,126.543159 219.822510,127.320877 
	C213.159912,133.454636 205.863144,137.731674 196.831741,138.685867 
	C193.317978,136.327347 189.828186,134.465271 186.750107,132.073380 
	C183.620270,129.641281 180.896164,126.687042 177.994400,123.961449 
	C179.704407,121.723534 181.414429,119.485611 183.388428,117.069801 
z"/>
<path fill="#3D00C3" opacity="1.000000" stroke="none" 
	d="
M113.950256,164.992508 
	C107.343872,161.631027 100.917885,157.834396 94.091202,155.004303 
	C82.174080,150.063919 74.639793,140.130981 75.124527,128.026733 
	C75.258629,124.678162 76.425453,121.153580 77.937279,118.117500 
	C82.863823,108.223907 87.030952,97.795135 95.909584,90.032700 
	C96.988380,90.738075 97.747215,91.590004 98.588821,92.717056 
	C95.633980,96.247337 92.069916,99.158058 89.668007,102.829147 
	C84.623817,110.538719 80.030647,118.293999 79.802208,128.272430 
	C79.484856,142.135284 91.782539,150.472687 100.434746,153.934570 
	C102.826393,154.891495 105.136238,156.051422 107.518646,157.033218 
	C110.047073,158.075211 112.617149,159.016129 115.610825,160.343323 
	C116.379036,161.792313 116.705444,162.899170 116.730423,164.135544 
	C115.602745,164.507553 114.776497,164.750031 113.950256,164.992508 
z"/>
<path fill="#240270" opacity="1.000000" stroke="none" 
	d="
M104.342590,101.074364 
	C106.180412,103.472656 108.018242,105.870949 109.792236,108.915268 
	C105.924149,113.471413 103.929680,117.993538 105.337242,123.501480 
	C106.975937,129.913818 110.824600,134.600510 116.581154,137.898682 
	C118.268417,138.865372 119.517059,140.597641 120.597687,142.028351 
	C116.149643,141.720078 112.070641,141.362473 107.681160,140.868713 
	C99.195076,136.504639 94.015984,125.119675 96.993286,115.977478 
	C98.690880,110.764816 101.844566,106.026352 104.342590,101.074364 
z"/>
<path fill="#53FE91" opacity="1.000000" stroke="none" 
	d="
M219.871124,55.769493 
	C221.345413,53.869801 222.819717,51.970112 224.647858,50.278778 
	C231.015945,56.354427 238.819595,57.345783 246.386063,56.723839 
	C257.497772,55.810482 268.498688,53.549034 279.546814,51.861946 
	C280.085419,54.631031 280.624023,57.400108 280.650452,60.580986 
	C271.554840,61.322803 262.973297,61.717449 254.387527,61.967216 
	C242.459625,62.314213 230.605072,62.127491 219.871124,55.769493 
z"/>
<path fill="#2F0193" opacity="1.000000" stroke="none" 
	d="
M104.251160,100.788574 
	C101.844566,106.026352 98.690880,110.764816 96.993286,115.977478 
	C94.015984,125.119675 99.195076,136.504639 107.717484,141.224670 
	C109.714546,144.799240 111.364807,147.881699 112.908783,151.192993 
	C112.535103,151.618271 112.267700,151.814713 112.000305,152.011139 
	C109.900726,151.031143 107.801147,150.051163 105.301315,148.696198 
	C102.696724,146.143478 100.510445,143.947113 98.284866,141.791321 
	C89.766777,133.540283 87.448082,120.971786 92.856369,110.464287 
	C95.311623,105.694092 98.371010,101.234856 101.156342,96.634560 
	C102.157471,97.923965 103.158600,99.213371 104.251160,100.788574 
z"/>
<path fill="#EC0380" opacity="1.000000" stroke="none" 
	d="
M183.000610,202.999390 
	C183.572449,205.110077 184.144287,207.220764 184.719406,209.995865 
	C186.199905,216.564911 187.677124,222.469528 189.154327,228.374161 
	C184.683136,230.539474 180.211960,232.704788 175.364151,234.470123 
	C171.982574,224.056442 172.605118,214.043472 175.397064,204.010773 
	C178.200455,203.660248 180.600540,203.329819 183.000610,202.999390 
z"/>
<path fill="#987245" opacity="1.000000" stroke="none" 
	d="
M156.934799,137.253784 
	C159.018295,136.520844 161.101776,135.787918 163.827454,135.200531 
	C168.991135,141.553513 173.512650,147.760941 177.842484,154.242462 
	C175.334274,155.774765 174.459656,157.135834 176.765625,159.400879 
	C177.569138,160.190140 177.618576,161.747086 177.592834,162.967514 
	C172.785324,161.978394 168.397339,160.975220 163.853180,159.666809 
	C159.922668,154.387070 157.523392,148.987625 157.918015,142.529312 
	C158.023834,140.797302 157.285568,139.013702 156.934799,137.253784 
z"/>
<path fill="#69FD75" opacity="1.000000" stroke="none" 
	d="
M219.596893,55.935818 
	C230.605072,62.127491 242.459625,62.314213 254.387527,61.967216 
	C262.973297,61.717449 271.554840,61.322803 280.614655,60.989204 
	C281.338806,62.729343 281.586578,64.473061 281.340393,66.605049 
	C271.265839,66.774261 261.681458,66.658257 252.105865,66.303978 
	C244.262527,66.013786 236.376160,65.847054 228.613785,64.827171 
	C224.466202,64.282227 219.534073,64.312408 216.868881,59.780083 
	C217.686813,58.554104 218.504745,57.328121 219.596893,55.935818 
z"/>
<path fill="#3CFEAC" opacity="1.000000" stroke="none" 
	d="
M279.457886,51.484093 
	C268.498688,53.549034 257.497772,55.810482 246.386063,56.723839 
	C238.819595,57.345783 231.015945,56.354427 224.932800,50.103767 
	C225.622147,48.848499 226.380402,47.976593 227.749268,47.133339 
	C232.345932,48.442711 236.320847,50.737888 240.320480,50.781834 
	C247.484268,50.860546 254.778275,50.140293 261.796234,48.685196 
	C266.749786,47.658131 271.337433,44.866276 276.088440,42.862312 
	C277.181946,45.610283 278.275452,48.358261 279.457886,51.484093 
z"/>
<path fill="#A49E2F" opacity="1.000000" stroke="none" 
	d="
M178.034149,153.968384 
	C173.512650,147.760941 168.991135,141.553513 164.190186,135.155396 
	C166.712173,133.034439 169.513580,131.104141 172.782867,129.362381 
	C174.244614,130.850983 175.035339,132.399567 176.268188,133.407288 
	C181.102112,137.358536 186.075500,141.139175 191.045624,145.319778 
	C192.063232,147.108246 193.032303,148.560089 193.595856,150.012360 
	C191.613586,150.363419 189.316895,150.178177 188.586853,151.159027 
	C185.684143,155.059006 181.738190,153.821716 178.034149,153.968384 
z"/>
<path fill="#E20391" opacity="1.000000" stroke="none" 
	d="
M174.993729,204.030884 
	C172.605118,214.043472 171.982574,224.056442 174.999374,234.470612 
	C171.275757,235.918365 167.540298,236.965683 163.404877,237.962555 
	C162.550018,231.879379 162.095093,225.846649 161.655945,220.023071 
	C168.780548,217.823410 170.149597,214.128281 166.867889,208.290802 
	C166.076889,206.883774 165.628876,205.283936 165.387329,203.347961 
	C169.026230,201.673813 172.472351,198.994598 174.993729,204.030884 
z"/>
<path fill="#ADFE1A" opacity="1.000000" stroke="none" 
	d="
M246.990372,85.007248 
	C246.525223,84.683601 246.060059,84.359955 245.212723,83.627777 
	C242.040314,83.048775 239.210007,82.491310 236.466843,82.775375 
	C225.073685,83.955162 213.767944,86.992088 202.226685,84.013489 
	C203.868469,80.957596 205.510254,77.901695 207.592163,74.955429 
	C214.513489,79.986961 222.024109,77.685173 229.112534,77.884926 
	C236.799179,78.101555 244.686310,76.152809 251.698273,81.212425 
	C252.758759,81.977646 254.535095,81.750778 255.987000,82.381897 
	C255.993805,83.845367 255.993927,84.909744 255.593842,85.980255 
	C254.125000,85.996452 253.056396,86.006523 251.623322,85.973389 
	C249.836014,85.622536 248.413193,85.314888 246.990372,85.007248 
z"/>
<path fill="#5B2E60" opacity="1.000000" stroke="none" 
	d="
M133.017426,131.920731 
	C137.078430,133.646576 141.139435,135.372437 145.577301,137.646881 
	C146.874557,142.765732 143.356873,147.672958 146.851105,152.331451 
	C145.102646,153.076126 143.283112,154.238785 141.961655,153.822052 
	C139.431732,153.024231 138.298706,153.438477 137.601776,156.033981 
	C134.078079,155.943268 130.868774,156.015259 130.095657,151.676544 
	C129.468445,148.252457 128.699188,145.133514 128.216995,141.825653 
	C130.008514,138.398071 131.512970,135.159409 133.017426,131.920731 
z"/>
<path fill="#DF8836" opacity="1.000000" stroke="none" 
	d="
M273.882507,109.991455 
	C273.430176,111.513229 272.977844,113.035004 271.815125,114.785339 
	C261.401642,114.767822 251.834885,115.049629 243.645111,122.044357 
	C241.032196,123.717049 238.382126,125.020203 236.575928,127.067764 
	C230.553116,133.895370 224.832870,140.989899 218.632874,148.024429 
	C215.752060,149.011230 213.235031,149.955734 210.202606,151.093643 
	C210.573441,149.220398 210.788315,148.134903 211.311310,146.898224 
	C218.886627,142.277618 224.956100,136.633209 229.358231,128.978653 
	C231.104019,127.824570 232.531158,126.737564 233.902939,125.584679 
	C237.295807,122.733177 240.393875,119.429680 244.094498,117.065620 
	C253.131409,111.292618 263.155914,108.994400 273.882507,109.991455 
z"/>
<path fill="#5001E3" opacity="1.000000" stroke="none" 
	d="
M65.272820,125.803802 
	C62.401726,128.100693 59.888760,130.316864 57.172749,132.247360 
	C55.940273,133.123383 54.305286,133.433105 52.474190,134.000107 
	C51.614452,132.938171 51.133415,131.875839 50.935730,130.427048 
	C53.837040,127.645302 56.740139,125.489899 59.004955,122.797562 
	C62.258160,118.930267 65.087639,114.701126 68.020905,110.571693 
	C70.733650,106.752731 73.344948,102.861725 76.307571,98.851212 
	C80.746834,92.792664 84.879440,86.885345 89.012039,80.978027 
	C90.008904,82.015762 91.005768,83.053505 92.073654,84.394875 
	C86.656174,92.105492 80.853004,99.304726 75.781090,106.986763 
	C71.891792,112.877556 68.925102,119.377480 65.272820,125.803802 
z"/>
<path fill="#7F4F57" opacity="1.000000" stroke="none" 
	d="
M147.004990,152.036118 
	C143.356873,147.672958 146.874557,142.765732 145.937180,137.775192 
	C149.335022,137.312668 152.749817,137.270432 156.549713,137.240982 
	C157.285568,139.013702 158.023834,140.797302 157.918015,142.529312 
	C157.523392,148.987625 159.922668,154.387070 163.682404,159.990707 
	C161.775589,161.738068 159.883347,162.856277 157.586136,163.980652 
	C152.280457,164.290298 151.016525,161.234467 151.020554,157.170074 
	C151.023361,154.329575 150.931198,151.729019 147.004990,152.036118 
z"/>
<path fill="#7D05FE" opacity="1.000000" stroke="none" 
	d="
M94.992691,208.010635 
	C92.615242,205.284134 90.237793,202.557648 88.079391,199.363647 
	C94.748016,194.639816 101.258934,190.471313 107.591942,186.048096 
	C108.764015,185.229462 109.217957,183.382660 110.385986,182.002563 
	C112.502045,181.667236 114.235451,181.339737 116.301491,181.181030 
	C116.760765,184.234909 116.887405,187.119980 116.752937,190.110596 
	C115.996788,190.482712 115.501747,190.749298 114.640747,191.013336 
	C107.847420,196.677399 101.420059,202.344025 94.992691,208.010635 
z"/>
<path fill="#EE5D40" opacity="1.000000" stroke="none" 
	d="
M243.994568,122.015869 
	C251.834885,115.049629 261.401642,114.767822 271.571350,115.022308 
	C270.669037,118.877129 269.300140,122.723541 267.359253,126.808197 
	C266.527191,127.021423 266.267090,126.996414 265.924988,126.587463 
	C263.895630,125.808281 261.942413,125.062996 260.002289,125.095634 
	C256.662384,125.151794 253.330643,125.692451 249.643372,126.056183 
	C245.196716,128.726395 241.102158,131.370193 236.752228,134.007950 
	C236.326614,133.997284 236.156387,133.992661 236.025452,133.639740 
	C238.708023,129.532913 241.351303,125.774399 243.994568,122.015869 
z"/>
<path fill="#E59C24" opacity="1.000000" stroke="none" 
	d="
M274.062897,109.687462 
	C263.155914,108.994400 253.131409,111.292618 244.094498,117.065620 
	C240.393875,119.429680 237.295807,122.733177 233.902939,125.584679 
	C232.531158,126.737564 231.104019,127.824570 229.353088,128.600861 
	C229.006226,127.505386 229.008347,126.750610 229.278900,125.801620 
	C230.376785,124.384422 231.136688,123.106895 232.046631,121.947075 
	C239.507233,112.437683 249.508514,107.005669 261.406158,103.985428 
	C266.473816,103.990089 271.138275,103.999870 275.802704,104.009659 
	C275.282928,105.800934 274.763123,107.592201 274.062897,109.687462 
z"/>
<path fill="#B2E23A" opacity="1.000000" stroke="none" 
	d="
M255.994064,85.974129 
	C255.993927,84.909744 255.993805,83.845367 256.387390,82.385284 
	C258.049377,82.098991 259.321503,82.323181 260.584656,82.280762 
	C261.560272,82.247993 262.524658,81.880959 263.494019,81.662537 
	C262.981903,80.775246 262.469818,79.887955 261.971069,78.669838 
	C261.992828,77.897652 262.001282,77.456291 262.458191,77.016327 
	C268.979462,77.358757 275.052277,77.699806 281.125061,78.040848 
	C280.437744,82.770248 279.750397,87.499641 278.546082,92.549103 
	C273.022186,91.902863 268.015228,90.936562 262.961487,89.606010 
	C260.607819,88.152550 258.300934,87.063339 255.994064,85.974129 
z"/>
<path fill="#7FF963" opacity="1.000000" stroke="none" 
	d="
M216.599335,59.961788 
	C219.534073,64.312408 224.466202,64.282227 228.613785,64.827171 
	C236.376160,65.847054 244.262527,66.013786 252.105865,66.303978 
	C261.681458,66.658257 271.265839,66.774261 281.296631,66.990311 
	C281.770447,69.033531 281.794037,71.079758 281.332886,73.483795 
	C274.562103,73.229958 268.276031,72.618317 261.628998,71.846649 
	C258.378204,71.126175 255.496948,70.136841 252.597076,70.078835 
	C239.379898,69.814468 226.334274,68.682693 213.841476,63.937626 
	C214.670929,62.672916 215.500366,61.408207 216.599335,59.961788 
z"/>
<path fill="#9902F0" opacity="1.000000" stroke="none" 
	d="
M115.006714,191.015869 
	C115.501747,190.749298 115.996788,190.482712 117.089249,190.138428 
	C119.459709,191.381546 121.232727,192.702393 123.005753,194.023224 
	C121.598610,204.504532 116.606987,213.319809 110.089478,221.809998 
	C107.336296,219.979858 104.731094,217.834412 102.289551,215.240723 
	C109.292137,208.268417 115.226425,201.266724 115.006714,191.015869 
z"/>
<path fill="#17FFE0" opacity="1.000000" stroke="none" 
	d="
M233.991333,40.987129 
	C239.540497,35.688541 246.238480,32.114853 253.700317,31.470346 
	C258.451904,31.059931 263.419159,33.146450 268.215515,34.492500 
	C261.148560,37.842144 254.303635,41.265091 247.108383,43.615597 
	C242.703033,45.054707 237.828537,44.526073 233.991333,40.987129 
z"/>
<path fill="#6A01FA" opacity="1.000000" stroke="none" 
	d="
M115.968857,181.012222 
	C114.235451,181.339737 112.502045,181.667236 110.103661,181.791687 
	C107.854813,178.465195 105.564964,178.616653 102.857872,180.047821 
	C95.782837,183.788208 88.671333,187.459595 81.574364,191.158493 
	C80.371773,189.445007 79.169174,187.731506 78.050278,185.361008 
	C86.210045,179.029404 95.527191,176.789047 105.454231,174.994965 
	C108.598228,175.003540 111.292999,175.010422 114.137398,175.336884 
	C114.847633,177.441711 115.408241,179.226974 115.968857,181.012222 
z"/>
<path fill="#1B073E" opacity="1.000000" stroke="none" 
	d="
M113.109451,112.957352 
	C118.205147,118.281807 123.300842,123.606262 128.641571,129.431732 
	C123.200813,135.871841 116.109489,135.467468 111.931519,128.647064 
	C110.429550,126.195145 109.863121,123.160339 108.932465,120.370613 
	C107.605110,116.391815 109.167160,113.991837 113.109451,112.957352 
z"/>
<path fill="#7401FD" opacity="1.000000" stroke="none" 
	d="
M81.707687,191.480530 
	C88.671333,187.459595 95.782837,183.788208 102.857872,180.047821 
	C105.564964,178.616653 107.854813,178.465195 109.721008,181.799500 
	C109.217957,183.382660 108.764015,185.229462 107.591942,186.048096 
	C101.258934,190.471313 94.748016,194.639816 87.955727,199.040436 
	C85.689018,196.724014 83.765015,194.263290 81.707687,191.480530 
z"/>
<path fill="#260856" opacity="1.000000" stroke="none" 
	d="
M113.024521,112.644531 
	C109.167160,113.991837 107.605110,116.391815 108.932465,120.370613 
	C109.863121,123.160339 110.429550,126.195145 111.931519,128.647064 
	C116.109489,135.467468 123.200813,135.871841 128.948547,129.592560 
	C130.227158,129.972900 131.443863,130.693451 132.838989,131.667374 
	C131.512970,135.159409 130.008514,138.398071 127.786438,141.823654 
	C125.034790,142.000061 123.000755,141.989548 120.966728,141.979019 
	C119.517059,140.597641 118.268417,138.865372 116.581154,137.898682 
	C110.824600,134.600510 106.975937,129.913818 105.337242,123.501480 
	C103.929680,117.993538 105.924149,113.471413 109.877686,109.247116 
	C110.997841,110.065872 111.968712,111.198799 113.024521,112.644531 
z"/>
<path fill="#5F00F3" opacity="1.000000" stroke="none" 
	d="
M44.992058,113.377457 
	C54.516014,109.831772 62.154037,103.778641 69.458130,97.203186 
	C71.386223,95.467422 73.354065,93.775803 75.646385,92.402527 
	C75.325668,94.827332 74.662224,96.913513 73.698639,99.150345 
	C68.141312,104.816483 63.164806,110.645294 57.507103,115.713699 
	C54.727505,118.203781 50.685432,119.284592 47.214691,121.003159 
	C46.467667,118.587952 45.720642,116.172737 44.992058,113.377457 
z"/>
<path fill="#5701EB" opacity="1.000000" stroke="none" 
	d="
M73.125847,177.961823 
	C71.697701,175.578705 70.269554,173.195602 69.173721,170.397858 
	C71.442314,169.654938 73.373886,169.295105 75.315887,169.005188 
	C78.870567,168.474533 82.964371,168.929459 85.879799,167.283936 
	C92.136131,163.752762 97.949265,165.422607 103.965988,167.353882 
	C103.623428,168.798050 103.312019,169.898102 102.557129,170.998505 
	C98.724960,171.504547 95.265800,171.733612 91.962685,172.575150 
	C85.636879,174.186783 79.399765,176.146530 73.125847,177.961823 
z"/>
<path fill="#2BFFC1" opacity="1.000000" stroke="none" 
	d="
M276.044617,42.530514 
	C271.337433,44.866276 266.749786,47.658131 261.796234,48.685196 
	C254.778275,50.140293 247.484268,50.860546 240.320480,50.781834 
	C236.320847,50.737888 232.345932,48.442711 228.012634,47.005074 
	C228.870850,45.577087 230.076309,44.306019 231.735992,43.229378 
	C234.984192,44.944443 238.069763,48.122753 240.520432,47.691669 
	C249.893753,46.042870 259.093323,43.340992 268.276855,40.745934 
	C269.728607,40.335701 270.763641,38.450909 271.991364,37.247887 
	C273.327850,38.898159 274.664307,40.548439 276.044617,42.530514 
z"/>
<path fill="#5001E3" opacity="1.000000" stroke="none" 
	d="
M103.997147,167.009766 
	C97.949265,165.422607 92.136131,163.752762 85.879799,167.283936 
	C82.964371,168.929459 78.870567,168.474533 75.315887,169.005188 
	C73.373886,169.295105 71.442314,169.654938 69.067978,170.055664 
	C66.903809,166.970612 65.177711,163.813126 63.372017,160.325714 
	C70.526154,161.163025 77.760406,162.327042 84.993263,163.499619 
	C86.964386,163.819183 89.311417,165.276489 89.988258,161.399307 
	C92.041069,161.003723 94.081535,161.003174 96.559013,161.001007 
	C99.639992,162.425140 102.283943,163.850906 104.858170,165.854645 
	C104.587685,166.711380 104.323914,166.903763 103.997147,167.009766 
z"/>
<path fill="#B0C91C" opacity="1.000000" stroke="none" 
	d="
M190.997086,144.983170 
	C186.075500,141.139175 181.102112,137.358536 176.268188,133.407288 
	C175.035339,132.399567 174.244614,130.850983 173.100830,129.245422 
	C174.432343,127.367020 175.913757,125.794113 177.694778,124.091324 
	C180.896164,126.687042 183.620270,129.641281 186.750107,132.073380 
	C189.828186,134.465271 193.317978,136.327347 196.645828,138.961990 
	C196.451706,141.309616 196.238861,143.117142 195.606476,144.946686 
	C193.790314,144.973526 192.393707,144.978348 190.997086,144.983170 
z"/>
<path fill="#8B01F8" opacity="1.000000" stroke="none" 
	d="
M114.640747,191.013336 
	C115.226425,201.266724 109.292137,208.268417 102.135513,214.939514 
	C99.626434,212.932556 97.435059,210.778549 95.118179,208.317596 
	C101.420059,202.344025 107.847420,196.677399 114.640747,191.013336 
z"/>
<path fill="#B4FF0E" opacity="1.000000" stroke="none" 
	d="
M202.016937,84.290604 
	C213.767944,86.992088 225.073685,83.955162 236.466843,82.775375 
	C239.210007,82.491310 242.040314,83.048775 244.914917,83.603836 
	C237.344818,85.654739 229.742065,87.638412 222.021072,88.896690 
	C214.537231,90.116325 206.931885,90.590439 199.109253,91.053719 
	C199.828110,88.666214 200.817642,86.616966 202.016937,84.290604 
z"/>
<path fill="#5701EB" opacity="1.000000" stroke="none" 
	d="
M47.231857,121.360992 
	C50.685432,119.284592 54.727505,118.203781 57.507103,115.713699 
	C63.164806,110.645294 68.141312,104.816483 74.032349,99.150528 
	C75.111092,99.000854 75.556007,99.001648 76.000916,99.002441 
	C73.344948,102.861725 70.733650,106.752731 68.020905,110.571693 
	C65.087639,114.701126 62.258160,118.930267 59.004955,122.797562 
	C56.740139,125.489899 53.837040,127.645302 50.834583,130.087738 
	C49.383068,127.329544 48.316044,124.524178 47.231857,121.360992 
z"/>
<path fill="#90FF3C" opacity="1.000000" stroke="none" 
	d="
M262.009735,77.014931 
	C262.001282,77.456291 261.992828,77.897652 261.558777,78.657623 
	C252.832489,77.651047 244.573029,75.835976 236.219940,75.132706 
	C227.106705,74.365402 217.739044,76.150902 209.013031,72.003578 
	C209.635254,70.846283 210.257477,69.688988 211.446838,68.328964 
	C219.476715,69.417572 226.916245,70.868774 234.408478,71.957069 
	C242.571289,73.142761 250.782990,73.991798 259.162781,75.241409 
	C260.238007,76.001793 261.123871,76.508362 262.009735,77.014931 
z"/>
<path fill="#33009F" opacity="1.000000" stroke="none" 
	d="
M101.136658,96.436218 
	C98.371010,101.234856 95.311623,105.694092 92.856369,110.464287 
	C87.448082,120.971786 89.766777,133.540283 98.284866,141.791321 
	C100.510445,143.947113 102.696724,146.143478 104.950958,148.657547 
	C95.714119,147.106796 87.008858,136.374542 87.059486,126.177902 
	C87.118057,114.381378 90.310280,103.748856 100.461433,96.052826 
	C100.792305,96.006577 101.116966,96.237877 101.136658,96.436218 
z"/>
<path fill="#9BFF2F" opacity="1.000000" stroke="none" 
	d="
M208.792618,72.172318 
	C217.739044,76.150902 227.106705,74.365402 236.219940,75.132706 
	C244.573029,75.835976 252.832489,77.651047 261.545471,78.988449 
	C262.469818,79.887955 262.981903,80.775246 263.494019,81.662537 
	C262.524658,81.880959 261.560272,82.247993 260.584656,82.280762 
	C259.321503,82.323181 258.049377,82.098991 256.380737,81.986206 
	C254.535095,81.750778 252.758759,81.977646 251.698273,81.212425 
	C244.686310,76.152809 236.799179,78.101555 229.112534,77.884926 
	C222.024109,77.685173 214.513489,79.986961 207.830292,74.691048 
	C207.942932,73.658371 208.257568,72.999710 208.792618,72.172318 
z"/>
<path fill="#82FF4C" opacity="1.000000" stroke="none" 
	d="
M258.973389,74.987602 
	C250.782990,73.991798 242.571289,73.142761 234.408478,71.957069 
	C226.916245,70.868774 219.476715,69.417572 211.657227,68.071976 
	C211.967682,66.758240 212.634888,65.498787 213.571777,64.088478 
	C226.334274,68.682693 239.379898,69.814468 252.597076,70.078835 
	C255.496948,70.136841 258.378204,71.126175 261.585876,72.173187 
	C260.926941,73.435707 259.950165,74.211655 258.973389,74.987602 
z"/>
<path fill="#F00477" opacity="1.000000" stroke="none" 
	d="
M189.492477,228.265121 
	C187.677124,222.469528 186.199905,216.564911 184.865631,210.328308 
	C193.024216,209.129181 195.921051,215.603012 200.010101,220.781204 
	C196.645020,223.475311 193.237823,225.815689 189.492477,228.265121 
z"/>
<path fill="#5F00F3" opacity="1.000000" stroke="none" 
	d="
M73.180412,178.296738 
	C79.399765,176.146530 85.636879,174.186783 91.962685,172.575150 
	C95.265800,171.733612 98.724960,171.504547 102.698090,171.293320 
	C103.856697,172.722961 104.430855,173.858124 105.005005,174.993286 
	C95.527191,176.789047 86.210045,179.029404 77.984573,185.049011 
	C76.301781,183.139908 74.768379,180.885773 73.180412,178.296738 
z"/>
<path fill="#EC0380" opacity="1.000000" stroke="none" 
	d="
M247.248398,166.800201 
	C242.429321,161.877655 244.458557,156.312927 246.222076,150.194839 
	C249.473892,144.494461 253.825058,144.217209 258.781586,145.990433 
	C255.027679,152.859177 251.273773,159.727921 247.248398,166.800201 
z"/>
<path fill="#21FFCE" opacity="1.000000" stroke="none" 
	d="
M271.726807,37.082832 
	C270.763641,38.450909 269.728607,40.335701 268.276855,40.745934 
	C259.093323,43.340992 249.893753,46.042870 240.520432,47.691669 
	C238.069763,48.122753 234.984192,44.944443 232.035797,43.092628 
	C232.400467,42.220394 232.919510,41.679344 233.714951,41.062710 
	C237.828537,44.526073 242.703033,45.054707 247.108383,43.615597 
	C254.303635,41.265091 261.148560,37.842144 268.542297,34.712364 
	C269.782928,35.341312 270.622620,36.129543 271.726807,37.082832 
z"/>
<path fill="#CCCB1E" opacity="1.000000" stroke="none" 
	d="
M263.008270,89.970261 
	C268.015228,90.936562 273.022186,91.902863 278.413239,92.926491 
	C278.373047,94.818001 277.948792,96.652191 276.872040,98.743011 
	C271.813995,98.998337 267.408417,98.997032 262.603027,98.994217 
	C261.137421,98.990196 260.071594,98.987701 259.003357,98.647812 
	C258.665253,97.538277 258.329559,96.766113 258.035004,95.629448 
	C258.385712,93.842888 258.695282,92.420830 259.350342,90.964615 
	C260.799927,90.610390 261.904114,90.290329 263.008270,89.970261 
z"/>
<path fill="#F00477" opacity="1.000000" stroke="none" 
	d="
M258.989349,145.704346 
	C253.825058,144.217209 249.473892,144.494461 246.269043,149.800827 
	C245.658981,147.620117 245.328644,145.240540 245.152954,142.120422 
	C250.170822,136.228165 257.547974,135.195312 262.022369,139.039719 
	C261.080597,141.165894 260.138855,143.292068 258.989349,145.704346 
z"/>
<path fill="#E52E6A" opacity="1.000000" stroke="none" 
	d="
M266.007019,126.971405 
	C266.267090,126.996414 266.527191,127.021423 267.176941,127.094040 
	C266.827484,128.912430 266.088440,130.683212 264.722656,132.670959 
	C254.787201,130.190674 246.242844,133.325317 241.736389,140.889893 
	C240.987350,140.522308 240.495804,140.261246 240.035858,139.656525 
	C240.712234,137.876312 241.357025,136.439758 242.266968,134.881165 
	C243.024567,134.174606 243.517044,133.590118 244.354858,132.970459 
	C246.139847,131.635162 247.579498,130.335052 249.263931,129.023514 
	C249.508728,129.012100 249.998169,128.985992 250.410004,128.985168 
	C255.883575,128.313354 260.945282,127.642380 266.007019,126.971405 
z"/>
<path fill="#95F04F" opacity="1.000000" stroke="none" 
	d="
M259.162781,75.241409 
	C259.950165,74.211655 260.926941,73.435707 261.946838,72.333221 
	C268.276031,72.618317 274.562103,73.229958 281.228027,73.910339 
	C281.540924,75.119339 281.473999,76.259598 281.266052,77.720352 
	C275.052277,77.699806 268.979462,77.358757 262.458191,77.016327 
	C261.123871,76.508362 260.238007,76.001793 259.162781,75.241409 
z"/>
<path fill="#EE116C" opacity="1.000000" stroke="none" 
	d="
M241.993896,140.996429 
	C246.242844,133.325317 254.787201,130.190674 264.498840,132.949036 
	C264.117157,134.879395 263.332611,136.748627 262.285217,138.828796 
	C257.547974,135.195312 250.170822,136.228165 245.153595,141.690857 
	C244.251099,142.001694 243.502640,142.001572 242.377808,141.750549 
	C241.998917,141.331924 241.996414,141.164169 241.993896,140.996429 
z"/>
<path fill="#5F01E8" opacity="1.000000" stroke="none" 
	d="
M76.307571,98.851212 
	C75.556007,99.001648 75.111092,99.000854 74.332481,98.999878 
	C74.662224,96.913513 75.325668,94.827332 75.991699,92.367676 
	C79.175438,87.401047 82.356598,82.807884 85.853638,78.063263 
	C87.060287,78.736816 87.951057,79.561836 88.926926,80.682434 
	C84.879440,86.885345 80.746834,92.792664 76.307571,98.851212 
z"/>
<path fill="#DCB226" opacity="1.000000" stroke="none" 
	d="
M263.002838,98.995728 
	C267.408417,98.997032 271.813995,98.998337 276.642700,99.006714 
	C276.747864,100.453499 276.429932,101.893196 275.957336,103.671280 
	C271.138275,103.999870 266.473816,103.990089 261.439026,103.642776 
	C261.713409,101.868736 262.358124,100.432236 263.002838,98.995728 
z"/>
<path fill="#C4FC02" opacity="1.000000" stroke="none" 
	d="
M205.005997,124.002800 
	C204.289337,113.453575 206.236908,103.861977 215.381439,97.218636 
	C218.132294,95.220184 221.237442,93.503212 224.432556,92.366234 
	C230.710541,90.132240 237.165421,88.395401 243.561905,87.008011 
	C241.253418,88.388313 238.971100,89.363037 236.599747,90.012718 
	C226.364151,92.816978 216.942749,103.945648 216.014664,114.462700 
	C215.172653,124.004593 215.172668,124.004585 205.504578,124.003273 
	C205.338379,124.003250 205.172195,124.002968 205.005997,124.002800 
z"/>
<path fill="#CDF302" opacity="1.000000" stroke="none" 
	d="
M204.743073,124.206429 
	C205.172195,124.002968 205.338379,124.003250 205.504578,124.003273 
	C215.172668,124.004585 215.172653,124.004593 216.014664,114.462700 
	C216.942749,103.945648 226.364151,92.816978 236.599747,90.012718 
	C238.971100,89.363037 241.253418,88.388313 243.790466,87.276077 
	C244.907471,86.520813 245.810699,86.052612 246.852142,85.295822 
	C248.413193,85.314888 249.836014,85.622536 251.625366,86.386932 
	C251.992966,88.223045 251.994049,89.602417 251.579239,90.985275 
	C246.938431,92.582664 242.683868,94.102745 238.494080,95.784203 
	C225.342880,101.062065 221.327621,112.480644 218.985352,124.998360 
	C214.504578,127.409790 209.949493,129.365372 204.370819,127.154449 
	C204.159683,126.128922 204.319916,125.269493 204.743073,124.206429 
z"/>
<path fill="#9712B9" opacity="1.000000" stroke="none" 
	d="
M130.456161,201.998596 
	C130.034515,200.273117 130.022705,198.543167 130.014709,196.000565 
	C131.111069,193.768082 132.205170,192.349457 133.295578,190.927994 
	C133.835114,190.224655 134.962997,189.314072 134.803406,188.844009 
	C133.999222,186.475494 133.413193,183.602890 131.706131,182.071548 
	C129.134079,179.764328 127.480148,177.562927 128.465103,174.042542 
	C133.890411,174.722366 139.306046,174.111557 142.299515,179.949631 
	C142.965820,181.249100 145.983719,181.342804 147.939545,182.426804 
	C148.647629,186.243332 149.335068,189.624725 150.022522,193.006104 
	C149.371033,195.101959 148.719559,197.197815 148.020630,199.660583 
	C143.840332,200.331772 139.701324,200.572479 135.577759,200.972473 
	C133.989090,201.126602 132.435547,201.642899 130.456161,201.998596 
z"/>
<path fill="#CD1F7A" opacity="1.000000" stroke="none" 
	d="
M175.397064,204.010773 
	C172.472351,198.994598 169.026230,201.673813 165.387054,202.971649 
	C164.039032,201.236313 163.055466,199.452499 162.074661,196.962708 
	C162.077423,193.640167 162.077423,191.023605 162.077423,188.169861 
	C164.961166,187.680954 169.477371,189.362030 169.619629,183.595718 
	C169.633530,183.031998 171.783936,182.520966 173.303497,181.987503 
	C174.787140,182.331650 175.909882,182.673782 177.066422,183.390015 
	C177.880814,187.746170 180.679794,188.257584 184.107224,188.034897 
	C187.528168,187.812637 190.469925,188.453247 189.658081,193.141174 
	C184.536804,194.248291 181.725677,196.632858 183.014648,201.987793 
	C183.010391,202.156372 183.006119,202.324951 183.001236,202.746460 
	C180.600540,203.329819 178.200455,203.660248 175.397064,204.010773 
z"/>
<path fill="#EA1A6A" opacity="1.000000" stroke="none" 
	d="
M183.431519,201.982300 
	C181.725677,196.632858 184.536804,194.248291 190.058411,193.150543 
	C192.863068,193.174011 195.135757,193.978775 196.950424,193.384628 
	C203.714218,191.170105 210.327682,188.496460 217.382385,185.990768 
	C219.512405,185.656998 221.257614,185.327560 223.002808,184.998123 
	C222.028534,188.087204 221.054276,191.176300 220.042755,194.630051 
	C209.725952,196.997299 199.446945,199.002701 189.166336,200.999786 
	C187.397186,201.343475 185.621216,201.652023 183.431519,201.982300 
z"/>
<path fill="#E82370" opacity="1.000000" stroke="none" 
	d="
M223.148163,184.697586 
	C221.257614,185.327560 219.512405,185.656998 217.419113,185.638702 
	C219.614105,181.454788 222.075333,177.561157 224.716415,173.793625 
	C231.319611,164.374008 235.929291,154.047958 238.999542,142.659760 
	C239.336685,141.547928 239.670471,140.774063 240.004272,140.000183 
	C240.495804,140.261246 240.987350,140.522308 241.736389,140.889893 
	C241.996414,141.164169 241.998917,141.331924 242.003571,141.751373 
	C238.990585,151.225632 236.471130,160.653198 232.773727,169.593597 
	C230.569519,174.923401 226.515793,179.488297 223.148163,184.697586 
z"/>
<path fill="#5A1598" opacity="1.000000" stroke="none" 
	d="
M129.953598,151.981689 
	C130.868774,156.015259 134.078079,155.943268 137.644043,156.426651 
	C138.373825,159.217209 138.658234,161.611237 138.592194,164.063385 
	C136.140808,165.131302 134.100815,166.786713 131.923981,166.992172 
	C129.014359,167.266769 125.998558,166.416641 122.704079,165.906403 
	C120.597153,165.177521 118.814499,164.591766 117.031853,164.006012 
	C116.705444,162.899170 116.379036,161.792313 116.005219,160.339264 
	C114.665459,157.564117 113.373093,155.135178 112.040512,152.358673 
	C112.267700,151.814713 112.535103,151.618271 113.277832,151.247910 
	C115.784050,151.655609 118.972305,153.343399 119.651283,152.632980 
	C123.129417,148.993790 126.555771,151.915878 129.953598,151.981689 
z"/>
<path fill="#800CD0" opacity="1.000000" stroke="none" 
	d="
M116.730423,164.135544 
	C118.814499,164.591766 120.597153,165.177521 122.728622,166.262604 
	C124.733383,169.194397 126.389328,171.626877 128.045273,174.059357 
	C127.480148,177.562927 129.134079,179.764328 131.706131,182.071548 
	C133.413193,183.602890 133.999222,186.475494 134.803406,188.844009 
	C134.962997,189.314072 133.835114,190.224655 133.295578,190.927994 
	C132.205170,192.349457 131.111069,193.768082 130.013245,195.568146 
	C127.916878,195.326141 125.825760,194.703873 123.370193,194.052429 
	C121.232727,192.702393 119.459709,191.381546 117.350372,190.032883 
	C116.887405,187.119980 116.760765,184.234909 116.301491,181.181030 
	C115.408241,179.226974 114.847633,177.441711 114.292755,174.995667 
	C114.195641,171.908295 114.092796,169.481689 113.989944,167.055099 
	C113.992546,166.596497 113.995148,166.137878 113.973999,165.335892 
	C114.776497,164.750031 115.602745,164.507553 116.730423,164.135544 
z"/>
<path fill="#5F01E8" opacity="1.000000" stroke="none" 
	d="
M113.583542,167.025391 
	C114.092796,169.481689 114.195641,171.908295 114.143127,174.676102 
	C111.292999,175.010422 108.598228,175.003540 105.454231,174.994965 
	C104.430855,173.858124 103.856697,172.722961 103.141579,171.292984 
	C103.312019,169.898102 103.623428,168.798050 103.965988,167.353882 
	C104.323914,166.903763 104.587685,166.711380 104.895485,166.208435 
	C107.727402,166.321396 110.452271,166.658554 113.583542,167.025391 
z"/>
<path fill="#AD258B" opacity="1.000000" stroke="none" 
	d="
M172.942612,181.985474 
	C171.783936,182.520966 169.633530,183.031998 169.619629,183.595718 
	C169.477371,189.362030 164.961166,187.680954 162.077423,188.169861 
	C162.077423,191.023605 162.077423,193.640167 162.044922,196.613403 
	C159.131042,196.952682 156.091034,197.689209 154.297882,194.183029 
	C153.897675,193.400482 152.004562,193.381424 150.410660,193.008484 
	C149.335068,189.624725 148.647629,186.243332 147.919708,182.051971 
	C147.260147,178.820404 146.641068,176.398804 146.405121,173.987793 
	C148.453094,174.058228 151.094147,174.802185 151.614304,174.059891 
	C153.905975,170.789597 156.478271,172.582825 159.183136,173.318970 
	C161.697617,174.757843 163.963211,176.493576 166.429123,176.852310 
	C169.858597,177.351212 172.517365,178.025513 172.942612,181.985474 
z"/>
<path fill="#D4E408" opacity="1.000000" stroke="none" 
	d="
M219.006866,125.296051 
	C221.327621,112.480644 225.342880,101.062065 238.494080,95.784203 
	C242.683868,94.102745 246.938431,92.582664 251.831100,90.988739 
	C252.666702,90.990784 252.834579,90.992828 252.963425,91.360397 
	C252.615051,93.148163 252.305695,94.570419 251.843796,96.295456 
	C248.251328,98.829971 244.855698,101.133789 241.362610,103.278915 
	C233.256653,108.256836 227.521759,115.190170 223.652679,124.020065 
	C222.202896,125.042908 221.084213,126.030396 219.965530,127.017868 
	C219.653152,126.543159 219.340775,126.068451 219.006866,125.296051 
z"/>
<path fill="#CCCB1E" opacity="1.000000" stroke="none" 
	d="
M219.822510,127.320885 
	C221.084213,126.030396 222.202896,125.042908 223.915436,124.131622 
	C225.010178,124.478317 225.511093,124.748817 225.975433,125.367577 
	C224.653442,127.610268 223.481506,129.594681 222.063202,131.383789 
	C215.415802,139.769272 207.004623,144.833725 196.026031,144.924683 
	C196.238861,143.117142 196.451706,141.309616 196.850449,139.225952 
	C205.863144,137.731674 213.159912,133.454636 219.822510,127.320885 
z"/>
<path fill="#33087A" opacity="1.000000" stroke="none" 
	d="
M130.095657,151.676544 
	C126.555771,151.915878 123.129417,148.993790 119.651283,152.632980 
	C118.972305,153.343399 115.784050,151.655609 113.384117,151.019058 
	C111.364807,147.881699 109.714546,144.799240 108.027962,141.360840 
	C112.070641,141.362473 116.149643,141.720078 120.597687,142.028351 
	C123.000755,141.989548 125.034790,142.000061 127.499374,142.012573 
	C128.699188,145.133514 129.468445,148.252457 130.095657,151.676544 
z"/>
<path fill="#C98042" opacity="1.000000" stroke="none" 
	d="
M211.003204,147.049408 
	C210.788315,148.134903 210.573441,149.220398 210.202606,151.093643 
	C213.235031,149.955734 215.752060,149.011230 218.600464,148.371231 
	C217.937317,149.966187 217.132431,151.482758 215.913223,152.505295 
	C212.029114,155.762772 207.990891,158.836517 203.598358,161.987549 
	C202.065598,162.184540 200.926086,162.295700 199.831223,162.579315 
	C194.237274,164.028366 188.654846,165.521912 182.875580,166.734833 
	C181.125961,165.297653 179.569168,164.125549 178.012375,162.953445 
	C177.618576,161.747086 177.569138,160.190140 176.765625,159.400879 
	C174.459656,157.135834 175.334274,155.774765 177.842484,154.242462 
	C181.738190,153.821716 185.684143,155.059006 188.586853,151.159027 
	C189.316895,150.178177 191.613586,150.363419 194.029083,150.012207 
	C200.246307,149.024231 205.624756,148.036819 211.003204,147.049408 
z"/>
<path fill="#B44F5E" opacity="1.000000" stroke="none" 
	d="
M177.592834,162.967514 
	C179.569168,164.125549 181.125961,165.297653 182.711456,167.033463 
	C182.247025,168.507477 181.753906,169.417786 181.513519,169.861526 
	C184.915222,171.693802 187.974747,173.341751 190.666565,175.027710 
	C187.569855,176.167480 184.277252,176.767670 184.649445,180.987701 
	C181.851044,181.671570 179.441833,182.343750 177.032623,183.015930 
	C175.909882,182.673782 174.787140,182.331650 173.303497,181.987488 
	C172.517365,178.025513 169.858597,177.351212 166.429123,176.852310 
	C163.963211,176.493576 161.697617,174.757843 159.451462,173.123810 
	C162.753922,169.057083 158.111588,166.926559 157.991119,163.974487 
	C159.883347,162.856277 161.775589,161.738068 163.838593,160.295944 
	C168.397339,160.975220 172.785324,161.978394 177.592834,162.967514 
z"/>
<path fill="#D2AC2D" opacity="1.000000" stroke="none" 
	d="
M211.311310,146.898224 
	C205.624756,148.036819 200.246307,149.024231 194.434616,150.011795 
	C193.032303,148.560089 192.063232,147.108246 191.045624,145.319778 
	C192.393707,144.978348 193.790314,144.973526 195.606476,144.946686 
	C207.004623,144.833725 215.415802,139.769272 222.063202,131.383789 
	C223.481506,129.594681 224.653442,127.610268 226.224518,125.362457 
	C226.510147,125.009087 227.008545,124.997490 227.266205,125.107780 
	C228.019394,125.477325 228.514923,125.736580 229.010452,125.995834 
	C229.008347,126.750610 229.006226,127.505386 229.009247,128.637970 
	C224.956100,136.633209 218.886627,142.277618 211.311310,146.898224 
z"/>
<path fill="#BAE111" opacity="1.000000" stroke="none" 
	d="
M253.002441,90.994888 
	C252.834579,90.992828 252.666702,90.990784 252.246979,90.985260 
	C251.994049,89.602417 251.992966,88.223045 251.989838,86.430130 
	C253.056396,86.006523 254.125000,85.996452 255.593842,85.980255 
	C258.300934,87.063339 260.607819,88.152550 262.961487,89.606010 
	C261.904114,90.290329 260.799927,90.610390 258.921387,90.961739 
	C256.432159,90.993637 254.717300,90.994263 253.002441,90.994888 
z"/>
<path fill="#843774" opacity="1.000000" stroke="none" 
	d="
M157.586121,163.980652 
	C158.111588,166.926559 162.753922,169.057083 159.291931,172.806427 
	C156.478271,172.582825 153.905975,170.789597 151.614304,174.059891 
	C151.094147,174.802185 148.453094,174.058228 146.244720,173.683502 
	C143.448318,170.247498 141.195480,167.126373 138.942627,164.005249 
	C138.658234,161.611237 138.373825,159.217209 138.047165,156.430527 
	C138.298706,153.438477 139.431732,153.024231 141.961655,153.822052 
	C143.283112,154.238785 145.102646,153.076126 146.851105,152.331451 
	C150.931198,151.729019 151.023361,154.329575 151.020554,157.170074 
	C151.016525,161.234467 152.280457,164.290298 157.586121,163.980652 
z"/>
<path fill="#E37042" opacity="1.000000" stroke="none" 
	d="
M204.012207,161.981247 
	C207.990891,158.836517 212.029114,155.762772 215.913223,152.505295 
	C217.132431,151.482758 217.937317,149.966187 218.964249,148.328934 
	C224.832870,140.989899 230.553116,133.895370 236.575928,127.067764 
	C238.382126,125.020203 241.032196,123.717049 243.645111,122.044365 
	C241.351303,125.774399 238.708023,129.532913 235.727020,133.795914 
	C233.896744,136.254868 232.375778,138.188431 230.916580,140.167526 
	C225.267548,147.829117 220.019226,155.938812 211.489624,160.774475 
	C209.430817,161.941681 206.527283,161.618866 204.012207,161.981247 
z"/>
<path fill="#DB5B54" opacity="1.000000" stroke="none" 
	d="
M203.598358,161.987549 
	C206.527283,161.618866 209.430817,161.941681 211.489624,160.774475 
	C220.019226,155.938812 225.267548,147.829117 230.916580,140.167526 
	C232.375778,138.188431 233.896744,136.254868 235.687744,134.144226 
	C236.156387,133.992661 236.326614,133.997284 236.713791,134.357819 
	C230.460815,143.845901 224.350815,153.262817 217.417007,162.028046 
	C210.840530,170.341568 202.330719,175.771149 191.034256,174.989700 
	C187.974747,173.341751 184.915222,171.693802 181.513519,169.861526 
	C181.753906,169.417786 182.247025,168.507477 182.904266,167.298523 
	C188.654846,165.521912 194.237274,164.028366 199.831223,162.579315 
	C200.926086,162.295700 202.065598,162.184540 203.598358,161.987549 
z"/>
<path fill="#E2485A" opacity="1.000000" stroke="none" 
	d="
M190.666565,175.027710 
	C202.330719,175.771149 210.840530,170.341568 217.417007,162.028046 
	C224.350815,153.262817 230.460815,143.845901 236.969162,134.363831 
	C241.102158,131.370193 245.196716,128.726395 249.646088,126.425232 
	C249.999985,127.507248 249.999069,128.246613 249.998169,128.985992 
	C249.998169,128.985992 249.508728,129.012100 248.909012,129.043930 
	C246.876038,130.385712 245.442780,131.695663 244.009521,133.005630 
	C243.517044,133.590118 243.024567,134.174606 241.917435,134.914261 
	C237.250946,141.016327 233.077911,146.885010 229.177094,152.929367 
	C223.942734,161.040039 218.532730,168.973907 209.678574,173.580170 
	C204.551239,176.247574 199.228546,178.539459 193.613480,181.043839 
	C190.501678,181.050232 187.770157,181.013107 185.038651,180.975983 
	C184.277252,176.767670 187.569855,176.167480 190.666565,175.027710 
z"/>
<path fill="#E63A61" opacity="1.000000" stroke="none" 
	d="
M250.410004,128.985168 
	C249.999069,128.246613 249.999985,127.507248 249.998184,126.398827 
	C253.330643,125.692451 256.662384,125.151794 260.002289,125.095634 
	C261.942413,125.062996 263.895630,125.808281 265.924988,126.587456 
	C260.945282,127.642380 255.883575,128.313354 250.410004,128.985168 
z"/>
<path fill="#E1B618" opacity="1.000000" stroke="none" 
	d="
M229.278900,125.801620 
	C228.514923,125.736580 228.019394,125.477325 227.298492,124.757507 
	C233.791855,110.907394 245.695587,104.059097 259.005798,98.985199 
	C260.071594,98.987701 261.137421,98.990196 262.603027,98.994217 
	C262.358124,100.432236 261.713409,101.868736 261.035797,103.647888 
	C249.508514,107.005669 239.507233,112.437683 232.046631,121.947075 
	C231.136688,123.106895 230.376785,124.384422 229.278900,125.801620 
z"/>
<path fill="#DDC910" opacity="1.000000" stroke="none" 
	d="
M259.003357,98.647812 
	C245.695587,104.059097 233.791855,110.907394 227.040833,124.647217 
	C227.008545,124.997490 226.510147,125.009087 226.261078,125.014206 
	C225.511093,124.748817 225.010178,124.478317 224.246521,124.096252 
	C227.521759,115.190170 233.256653,108.256836 241.362610,103.278915 
	C244.855698,101.133789 248.251328,98.829971 252.272400,96.298813 
	C254.567001,95.997574 256.280457,95.995766 257.993896,95.993958 
	C258.329559,96.766113 258.665253,97.538277 259.003357,98.647812 
z"/>
<path fill="#D3D914" opacity="1.000000" stroke="none" 
	d="
M258.035004,95.629448 
	C256.280457,95.995766 254.567001,95.997574 252.424957,95.996033 
	C252.305695,94.570419 252.615051,93.148163 252.963425,91.360397 
	C254.717300,90.994263 256.432159,90.993637 258.575958,90.995895 
	C258.695282,92.420830 258.385712,93.842888 258.035004,95.629448 
z"/>
<path fill="#E63A61" opacity="1.000000" stroke="none" 
	d="
M193.993774,181.000336 
	C199.228546,178.539459 204.551239,176.247574 209.678574,173.580170 
	C218.532730,168.973907 223.942734,161.040039 229.177094,152.929367 
	C233.077911,146.885010 237.250946,141.016327 241.652283,135.036316 
	C241.357025,136.439758 240.712234,137.876312 240.035858,139.656525 
	C239.670471,140.774063 239.336685,141.547928 238.654541,142.712402 
	C235.848206,147.319931 233.204178,151.440842 230.968613,155.772552 
	C225.252853,166.847580 218.012604,176.496460 206.312683,181.746780 
	C202.331024,183.533554 197.883804,184.681000 193.993774,181.000336 
z"/>
<path fill="#E63A61" opacity="1.000000" stroke="none" 
	d="
M244.354858,132.970459 
	C245.442780,131.695663 246.876038,130.385712 248.664215,129.055344 
	C247.579498,130.335052 246.139847,131.635162 244.354858,132.970459 
z"/>
<path fill="#7A1AA5" opacity="1.000000" stroke="none" 
	d="
M138.592194,164.063385 
	C141.195480,167.126373 143.448318,170.247498 145.861572,173.672913 
	C146.641068,176.398804 147.260147,178.820404 147.899063,181.616821 
	C145.983719,181.342804 142.965820,181.249100 142.299515,179.949631 
	C139.306046,174.111557 133.890411,174.722366 128.465103,174.042542 
	C126.389328,171.626877 124.733383,169.194397 123.052895,166.405716 
	C125.998558,166.416641 129.014359,167.266769 131.923981,166.992172 
	C134.100815,166.786713 136.140808,165.131302 138.592194,164.063385 
z"/>
<path fill="#E52E6A" opacity="1.000000" stroke="none" 
	d="
M193.613480,181.043854 
	C197.883804,184.681000 202.331024,183.533554 206.312683,181.746780 
	C218.012604,176.496460 225.252853,166.847580 230.968613,155.772552 
	C233.204178,151.440842 235.848206,147.319931 238.651199,143.050354 
	C235.929291,154.047958 231.319611,164.374008 224.716415,173.793625 
	C222.075333,177.561157 219.614105,181.454788 217.034286,185.643066 
	C210.327682,188.496460 203.714218,191.170105 196.950424,193.384628 
	C195.135757,193.978775 192.863068,193.174011 190.400330,193.002045 
	C190.469925,188.453247 187.528168,187.812637 184.107224,188.034897 
	C180.679794,188.257584 177.880814,187.746170 177.066422,183.390015 
	C179.441833,182.343750 181.851044,181.671570 184.649445,180.987701 
	C187.770157,181.013107 190.501678,181.050232 193.613480,181.043854 
z"/>
</svg>